<svg width="90" height="90" viewBox="0 0 90 90" fill="none" xmlns="http://www.w3.org/2000/svg">
<path d="M47.7976 30L47.7976 32.5L47.7976 30ZM19.2322 28.2322C18.2559 29.2085 18.2559 30.7915 19.2322 31.7678L35.1421 47.6777C36.1184 48.654 37.7013 48.654 38.6777 47.6777C39.654 46.7014 39.654 45.1184 38.6777 44.1421L24.5355 30L38.6777 15.8579C39.654 14.8816 39.654 13.2986 38.6777 12.3223C37.7013 11.346 36.1184 11.346 35.1421 12.3223L19.2322 28.2322ZM60.6481 36.6965L58.7033 38.2673L58.7033 38.2673L60.6481 36.6965ZM59.9153 35.7892L61.8602 34.2184L61.8602 34.2184L59.9153 35.7892ZM49.5149 60L49.5149 62.5L49.5149 60ZM59.3847 56.0521L57.6606 54.2417L59.3847 56.0521ZM47.7976 27.5L21 27.5L21 32.5L47.7976 32.5L47.7976 27.5ZM62.593 35.1256L61.8602 34.2184L57.9705 37.3601L58.7033 38.2673L62.593 35.1256ZM24.9131 62.5L49.5149 62.5L49.5149 57.5L24.9131 57.5L24.9131 62.5ZM49.5149 62.5C53.8316 62.5 57.9829 60.8395 61.1088 57.8624L57.6606 54.2417C55.4644 56.3334 52.5478 57.5 49.5149 57.5L49.5149 62.5ZM58.7033 38.2673C62.5675 43.0516 62.1139 50.0004 57.6606 54.2417L61.1088 57.8624C67.4475 51.8257 68.0931 41.9351 62.593 35.1256L58.7033 38.2673ZM47.7976 32.5C51.7487 32.5 55.4879 34.2864 57.9705 37.3601L61.8602 34.2184C58.4283 29.9694 53.2594 27.5 47.7976 27.5L47.7976 32.5Z" fill="#110752"/>
</svg>
